<?xml version="1.0" encoding="UTF-8" standalone="no"?>
<svg
   xmlns:dc="http://purl.org/dc/elements/1.1/"
   xmlns:cc="http://creativecommons.org/ns#"
   xmlns:rdf="http://www.w3.org/1999/02/22-rdf-syntax-ns#"
   xmlns:svg="http://www.w3.org/2000/svg"
   xmlns="http://www.w3.org/2000/svg"
   xmlns:sodipodi="http://sodipodi.sourceforge.net/DTD/sodipodi-0.dtd"
   xmlns:inkscape="http://www.inkscape.org/namespaces/inkscape"
   inkscape:version="1.0 (4035a4fb49, 2020-05-01)"
   height="52.379955"
   width="109.99"
   sodipodi:docname="logo-shape.svg"
   xml:space="preserve"
   viewBox="0 0 109.99 52.379954"
   y="0px"
   x="0px"
   id="Layer_1"
   version="1.1"><metadata
   id="metadata5179"><rdf:RDF><cc:Work
       rdf:about=""><dc:format>image/svg+xml</dc:format><dc:type
         rdf:resource="http://purl.org/dc/dcmitype/StillImage" /><dc:title></dc:title></cc:Work></rdf:RDF></metadata><defs
   id="defs5177" /><sodipodi:namedview
   inkscape:current-layer="g5172"
   inkscape:window-maximized="0"
   inkscape:window-y="33"
   inkscape:window-x="965"
   inkscape:cy="54.187964"
   inkscape:cx="39.527818"
   inkscape:zoom="2.5583714"
   fit-margin-bottom="0"
   fit-margin-right="0"
   fit-margin-left="0"
   fit-margin-top="0"
   showgrid="false"
   id="namedview5175"
   inkscape:window-height="1039"
   inkscape:window-width="947"
   inkscape:pageshadow="2"
   inkscape:pageopacity="0"
   guidetolerance="10"
   gridtolerance="10"
   objecttolerance="10"
   borderopacity="1"
   bordercolor="#666666"
   pagecolor="#ffffff" />
<style
   id="style5108"
   type="text/css">
	.st0{fill:#182F58;}
	.st1{fill:#3DA8DC;}
</style>
<g
   transform="translate(-11.13,-44.98)"
   id="g5172">
	<g
   id="g5120">
		
	</g>
	
	
	
	
	
	
	
	
	
	
	
	<g
   id="g5170">
		<g
   id="g5152">
			<path
   id="path5150"
   d="m 115.7,50.31 c 3.62,3.56 5.42,7.9 5.42,13.03 0,5.08 -1.8,9.41 -5.39,13 -3.59,3.59 -7.93,5.39 -13,5.39 -5.11,0 -9.46,-1.79 -13.03,-5.36 -3.57,-3.57 -5.36,-7.92 -5.36,-13.03 0,-5.03 1.77,-9.34 5.32,-12.95 3.55,-3.61 7.8,-5.41 12.76,-5.41 5.24,0 9.66,1.77 13.28,5.33 z m -18.44,7.32 c -1.5,1.56 -2.24,3.47 -2.24,5.71 0,2.24 0.75,4.14 2.24,5.71 1.5,1.56 3.32,2.35 5.48,2.35 2.12,0 3.94,-0.79 5.45,-2.36 1.51,-1.57 2.27,-3.47 2.27,-5.69 0,-2.22 -0.75,-4.12 -2.26,-5.69 -1.5,-1.57 -3.33,-2.36 -5.46,-2.36 -2.16,-0.01 -3.99,0.77 -5.48,2.33 z"
   class="st1" />
		</g>
		<g
   id="g5168">
			<g
   id="g5166">
				<g
   id="g5158">
					<g
   id="g5156">
						<path
   id="path5154"
   d="m 28.1,52.41 28.73,38.94 -5.67,4.19 C 47.04,98.58 41.24,97.7 38.2,93.58 L 11.13,56.89 19.05,51.04 c 2.88,-2.11 6.93,-1.5 9.05,1.37 z"
   class="st1" />
					</g>
				</g>
				<g
   id="g5164">
					<g
   id="g5162">
						<path
   id="path5160"
   d="m 62.07,52.42 28.73,38.94 -5.67,4.19 c -4.12,3.04 -9.92,2.16 -12.96,-1.96 l -27.08,-36.7 7.92,-5.84 c 2.88,-2.12 6.94,-1.51 9.06,1.37 z"
   class="st1" />
					</g>
				</g>
			</g>
		</g>
	</g>
</g>
</svg>
