<?xml version="1.0" encoding="UTF-8" standalone="no"?>
<svg
   xmlns:dc="http://purl.org/dc/elements/1.1/"
   xmlns:cc="http://creativecommons.org/ns#"
   xmlns:rdf="http://www.w3.org/1999/02/22-rdf-syntax-ns#"
   xmlns:svg="http://www.w3.org/2000/svg"
   xmlns="http://www.w3.org/2000/svg"
   xmlns:sodipodi="http://sodipodi.sourceforge.net/DTD/sodipodi-0.dtd"
   xmlns:inkscape="http://www.inkscape.org/namespaces/inkscape"
   inkscape:version="1.0 (4035a4fb49, 2020-05-01)"
   height="59.780083"
   width="232.85007"
   sodipodi:docname="logo.svg"
   xml:space="preserve"
   viewBox="0 0 232.85007 59.780081"
   y="0px"
   x="0px"
   id="Layer_1"
   version="1.1"><metadata
   id="metadata5179"><rdf:RDF><cc:Work
       rdf:about=""><dc:format>image/svg+xml</dc:format><dc:type
         rdf:resource="http://purl.org/dc/dcmitype/StillImage" /><dc:title></dc:title></cc:Work></rdf:RDF></metadata><defs
   id="defs5177" /><sodipodi:namedview
   inkscape:current-layer="Layer_1"
   inkscape:window-maximized="0"
   inkscape:window-y="33"
   inkscape:window-x="965"
   inkscape:cy="135.87595"
   inkscape:cx="112.94568"
   inkscape:zoom="0.84000276"
   fit-margin-bottom="0"
   fit-margin-right="0"
   fit-margin-left="0"
   fit-margin-top="0"
   showgrid="false"
   id="namedview5175"
   inkscape:window-height="1039"
   inkscape:window-width="947"
   inkscape:pageshadow="2"
   inkscape:pageopacity="0"
   guidetolerance="10"
   gridtolerance="10"
   objecttolerance="10"
   borderopacity="1"
   bordercolor="#666666"
   pagecolor="#ffffff" />
<style
   id="style5108"
   type="text/css">
	.st0{fill:#182F58;}
	.st1{fill:#3DA8DC;}
</style>
<g
   transform="translate(-11.13,-39.25)"
   id="g5172">
	<g
   id="g5120">
		<g
   id="g5118">
			<path
   id="path5110"
   d="m 194.47,98.65 c -1.47,0 -2.55,-0.77 -2.55,-1.71 v 0 c -0.15,0.15 -0.4,0.3 -0.76,0.55 -0.61,0.4 -3.08,1.41 -5.46,1.41 -3.13,0 -5.76,-1.06 -7.88,-3.18 -2.12,-2.17 -3.18,-4.74 -3.18,-7.81 0,-3.02 1.06,-5.59 3.18,-7.76 2.17,-2.17 4.8,-3.23 7.88,-3.23 2.98,0 5.61,1.01 7.78,2.97 2.17,1.97 3.28,4.69 3.28,8.17 v 8.66 c 0.01,1.53 -1.54,1.93 -2.29,1.93 z m -8.76,-4.38 c 3.49,0 6.21,-2.67 6.21,-6.35 0,-3.63 -2.63,-6.35 -6.21,-6.35 -3.49,0 -6.21,2.72 -6.21,6.35 -0.01,3.67 2.72,6.35 6.21,6.35 z"
   class="st0" />
			<path
   id="path5112"
   d="m 141.78,96.38 c 1.82,1.66 3.99,2.52 6.47,2.52 2.48,0 4.65,-0.86 6.47,-2.52 0.09,-0.09 0.17,-0.19 0.26,-0.28 0.09,0.09 0.17,0.19 0.27,0.28 1.82,1.66 3.99,2.52 6.47,2.52 2.48,0 4.65,-0.86 6.47,-2.52 1.77,-1.66 2.68,-4.18 2.68,-7.61 V 79.6 c 0,-1.34 -1.09,-2.42 -2.42,-2.42 v 0 c -1.34,0 -2.42,1.08 -2.42,2.42 v 9.17 c 0,3.63 -1.67,5.49 -4.29,5.49 -2.5,0 -4.18,-1.74 -4.33,-5.01 0,-0.16 0.02,-0.32 0.02,-0.49 V 79.6 c 0,-1.34 -1.09,-2.44 -2.44,-2.44 v 0 c -1.35,0 -2.44,1.09 -2.44,2.44 v 9.16 c 0,0.17 0.01,0.33 0.02,0.49 -0.15,3.3 -1.78,5 -4.28,5 -2.63,0 -4.34,-1.92 -4.34,-5.49 V 79.6 c 0,-1.34 -1.09,-2.42 -2.42,-2.42 v 0 c -1.34,0 -2.42,1.08 -2.42,2.42 v 9.17 c -0.06,3.38 0.85,5.95 2.67,7.61 z"
   class="st0" />
			<path
   id="path5114"
   d="m 205.86,96.36 -5.17,-16.25 c -0.49,-1.51 0.64,-3.07 2.24,-3.07 h 0.05 c 1.03,0 1.94,0.67 2.24,1.65 l 3.73,12.18 3.78,-12.19 c 0.31,-0.98 1.22,-1.64 2.24,-1.64 v 0 c 1.59,0 2.73,1.55 2.24,3.07 l -5.17,16.25 c -0.56,1.66 -1.31,2.67 -3.08,2.67 -1.49,0.01 -2.5,-0.9 -3.1,-2.67 z"
   class="st0" />
			<path
   id="path5116"
   d="m 231.18,89.98 h 5.72 c 4.06,0 6.65,-4.42 4.55,-7.89 -0.4,-0.66 -2.64,-5.17 -9.29,-5.17 -3.08,0 -5.66,1.06 -7.83,3.23 -2.17,2.17 -3.23,4.74 -3.23,7.76 0,3.07 1.06,5.65 3.23,7.81 2.17,2.12 4.75,3.18 7.83,3.18 3.03,0 5.63,-0.77 7.81,-2.89 1.03,-1.03 1.9,-2.46 0.29,-3.76 -1.42,-1.14 -2.95,-0.02 -3.67,0.54 -1.26,0.98 -2.65,1.48 -4.42,1.48 -1.77,0 -3.23,-0.6 -4.45,-1.76 -1.16,-1.21 -1.77,-2.72 -1.77,-4.59 0,-1.87 0.61,-3.38 1.77,-4.54 1.21,-1.21 2.68,-1.81 4.45,-1.81 4.16,0 5.13,2.42 5.23,2.91 0.12,0.59 -0.07,1.17 -0.67,1.17 h -5.54 c -1.2,0 -2.17,0.97 -2.17,2.17 v 0 c -0.02,1.19 0.96,2.16 2.16,2.16 z"
   class="st0" />
		</g>
	</g>
	<path
   id="path5122"
   d="m 157.52,61.42 h -9.2 c -3.64,0 -5.5,-1.66 -5.5,-4.28 0,-2.62 1.92,-4.33 5.5,-4.33 h 9.2 c 1.29,0 2.36,-1.01 2.41,-2.3 0.01,-0.04 0.01,-0.08 0.01,-0.12 0,-1.02 -0.64,-1.9 -1.55,-2.25 -0.12,-0.05 -0.25,-0.09 -0.39,-0.12 -0.16,-0.04 -0.32,-0.05 -0.48,-0.05 h -9.21 c -3.39,0 -5.96,0.92 -7.62,2.73 -1.68,1.82 -2.53,3.99 -2.53,6.45 0,2.47 0.85,4.64 2.53,6.45 1.45,1.54 3.57,2.43 6.37,2.63 0.03,0.01 0.04,0.01 0.07,0 0.39,0.03 0.77,0.04 1.19,0.04 h 9.2 c 1.31,0 2.37,-1.02 2.41,-2.33 0.01,-0.05 0.01,-0.09 0.01,-0.15 -0.02,-1.31 -1.1,-2.37 -2.42,-2.37 z"
   class="st0" />
	<path
   id="path5124"
   d="m 235.75,63.64 c 0,1.22 -1.37,2.23 -3.13,2.37 -0.16,0.03 -0.32,0.04 -0.48,0.04 h -21.07 c -2,0 -3.61,-1.08 -3.61,-2.41 0,-1.34 1.61,-2.42 3.61,-2.42 h 18.06 c 0.75,0.13 1.55,0.2 2.4,0.2 0.56,0 1.11,-0.03 1.63,-0.09 1.48,0.27 2.59,1.2 2.59,2.31 z"
   class="st0" />
	<path
   id="path5126"
   d="m 240.75,47.29 c -2.17,-2.17 -4.74,-3.22 -7.84,-3.22 -3.03,0 -5.6,1.05 -7.77,3.22 -2.17,2.17 -3.24,4.75 -3.24,7.77 0,2.33 0.61,4.36 1.84,6.16 0.4,0.59 0.87,1.13 1.4,1.66 2.17,2.11 4.74,3.16 7.77,3.16 0.25,0 0.49,-0.01 0.73,-0.04 2.77,-0.13 5.1,-1.18 7.1,-3.12 2.17,-2.17 3.24,-4.75 3.24,-7.82 0.01,-3.02 -1.06,-5.6 -3.23,-7.77 z m -3.39,12.36 c -0.96,0.9 -2.07,1.49 -3.36,1.68 -0.35,0.07 -0.72,0.09 -1.09,0.09 -0.57,0 -1.11,-0.07 -1.61,-0.2 -1.07,-0.25 -1.99,-0.78 -2.77,-1.57 -1.21,-1.21 -1.83,-2.73 -1.83,-4.59 0,-1.86 0.61,-3.38 1.83,-4.53 1.16,-1.21 2.63,-1.81 4.38,-1.81 1.77,0 3.24,0.6 4.45,1.81 1.16,1.16 1.77,2.67 1.77,4.53 0.01,1.86 -0.61,3.38 -1.77,4.59 z"
   class="st0" />
	<path
   id="path5128"
   d="m 211.34,59.01 v 13.21 c 0,1.46 -1.08,2.64 -2.41,2.64 -1.35,0 -2.43,-1.18 -2.43,-2.64 v -11.6 c 0.1,-0.37 0.16,-0.76 0.19,-1.17 0.01,-0.14 0.01,-0.29 0.01,-0.44 0,-0.17 0,-0.34 -0.02,-0.51 -0.01,-0.11 -0.02,-0.23 -0.04,-0.34 0.04,-0.3 0.06,-0.61 0.06,-0.93 0,-0.16 0,-0.32 -0.01,-0.48 0.01,-0.14 0.01,-0.29 0.01,-0.44 0,-0.17 0,-0.34 -0.02,-0.51 0.34,-0.97 1.22,-1.66 2.24,-1.66 0.65,0 1.24,0.28 1.66,0.74 0.41,1.06 0.65,2.19 0.71,3.41 0.04,0.23 0.05,0.47 0.05,0.72 z"
   class="st0" />
	<path
   id="path5130"
   d="m 159.95,50.61 v 15.44 c 0,0.07 0,0.15 -0.03,0.21 h -4.78 c -0.03,-0.07 -0.03,-0.15 -0.03,-0.21 V 52.8 c 0.13,-0.56 0.2,-1.12 0.2,-1.74 0,-0.41 -0.03,-0.82 -0.09,-1.2 0.28,-1.09 1.2,-1.89 2.31,-1.9 h 0.01 c 0.16,0 0.32,0.01 0.48,0.05 0.13,0.03 0.27,0.07 0.39,0.12 0.81,0.35 1.4,1.14 1.51,2.13 0.01,0.08 0.03,0.16 0.03,0.24 0,0.03 0,0.07 0,0.11 z"
   class="st0" />
	<path
   id="path5132"
   d="m 211.3,58.28 c -0.06,-1.22 -0.29,-2.35 -0.71,-3.41 -0.53,-1.35 -1.34,-2.57 -2.43,-3.68 -2.17,-2.17 -4.76,-3.23 -7.84,-3.23 -3.03,0 -5.61,1.07 -7.78,3.23 -2.17,2.17 -3.22,4.73 -3.22,7.82 0,3.02 1.05,5.58 3.22,7.75 2.17,2.17 4.76,3.23 7.78,3.23 2.33,0 4.37,-0.61 6.17,-1.83 0.42,-0.29 0.81,-0.6 1.2,-0.96 0.16,-0.14 0.31,-0.29 0.46,-0.44 0.84,-0.86 1.52,-1.78 2.01,-2.77 0.73,-1.42 1.11,-2.96 1.15,-4.66 0,-0.01 0,-0.02 0,-0.03 0.01,-0.1 0.01,-0.2 0.01,-0.3 0.02,-0.24 0.01,-0.48 -0.02,-0.72 z m -4.61,1.17 c -0.03,0.41 -0.09,0.8 -0.19,1.17 -0.25,1.07 -0.79,1.98 -1.57,2.77 -1.21,1.21 -2.73,1.82 -4.6,1.82 -1.87,0 -3.39,-0.61 -4.55,-1.82 -1.21,-1.16 -1.81,-2.62 -1.81,-4.37 0,-1.77 0.6,-3.23 1.81,-4.44 1.16,-1.16 2.68,-1.77 4.55,-1.77 1.87,0 3.39,0.61 4.6,1.77 0.91,0.96 1.49,2.06 1.68,3.35 0.02,0.08 0.03,0.16 0.04,0.24 0.02,0.11 0.03,0.23 0.04,0.34 0.01,0.17 0.02,0.34 0.02,0.51 0,0.14 -0.01,0.29 -0.02,0.43 z"
   class="st0" />
	<path
   id="path5134"
   d="m 183.5,50.63 c 1.67,1.81 2.48,3.98 2.48,6.45 0,2.47 -0.86,4.64 -2.53,6.45 -1.67,1.81 -4.24,2.72 -7.63,2.72 h -9.46 c -1.34,0 -2.42,-1.08 -2.42,-2.42 0,-1.34 1.09,-2.42 2.42,-2.42 h 9.46 c 3.59,0 5.51,-1.71 5.51,-4.33 0,-2.62 -1.87,-4.28 -5.51,-4.28 h -9.46 c -1.34,0 -2.42,-1.08 -2.42,-2.42 0,-1.34 1.09,-2.42 2.42,-2.42 h 9.46 c 3.44,0 6.02,0.91 7.68,2.67 z"
   class="st0" />
	<path
   id="path5136"
   d="m 176.83,63.84 c 0,1.33 -1.91,2.42 -4.26,2.42 h -25.11 c -0.05,0 -0.09,0 -0.15,-0.01 -0.05,0 -0.12,0 -0.17,-0.03 -0.03,0.01 -0.04,0.01 -0.07,0 -1.19,-0.15 -2.09,-1.16 -2.09,-2.38 v -1.9 c 0.72,-0.33 1.64,-0.52 2.65,-0.52 h 24.93 c 2.37,0 4.27,1.07 4.27,2.42 z"
   class="st0" />
	<g
   id="g5140">
		<path
   id="path5138"
   d="m 180.51,72.41 c 0,-1.34 -1.09,-2.42 -2.42,-2.42 h -2.5 c -1.34,0 -2.42,1.08 -2.42,2.42 0,1.34 1.09,2.42 2.42,2.42 h 2.5 c 1.33,0 2.42,-1.08 2.42,-2.42 z"
   class="st1" />
	</g>
	<g
   id="g5144">
		<path
   id="path5142"
   d="m 159.18,41.67 c 0,-1.34 -1.09,-2.42 -2.42,-2.42 h -2.5 c -1.34,0 -2.42,1.08 -2.42,2.42 0,1.34 1.09,2.42 2.42,2.42 h 2.5 c 1.34,0 2.42,-1.08 2.42,-2.42 z"
   class="st1" />
	</g>
	<g
   id="g5148">
		<path
   id="path5146"
   d="m 150.25,41.67 c 0,-1.34 -1.09,-2.42 -2.42,-2.42 h -2.5 c -1.34,0 -2.42,1.08 -2.42,2.42 0,1.34 1.09,2.42 2.42,2.42 h 2.5 c 1.34,0 2.42,-1.08 2.42,-2.42 z"
   class="st1" />
	</g>
	<g
   id="g5170">
		<g
   id="g5152">
			<path
   id="path5150"
   d="m 115.7,50.31 c 3.62,3.56 5.42,7.9 5.42,13.03 0,5.08 -1.8,9.41 -5.39,13 -3.59,3.59 -7.93,5.39 -13,5.39 -5.11,0 -9.46,-1.79 -13.03,-5.36 -3.57,-3.57 -5.36,-7.92 -5.36,-13.03 0,-5.03 1.77,-9.34 5.32,-12.95 3.55,-3.61 7.8,-5.41 12.76,-5.41 5.24,0 9.66,1.77 13.28,5.33 z m -18.44,7.32 c -1.5,1.56 -2.24,3.47 -2.24,5.71 0,2.24 0.75,4.14 2.24,5.71 1.5,1.56 3.32,2.35 5.48,2.35 2.12,0 3.94,-0.79 5.45,-2.36 1.51,-1.57 2.27,-3.47 2.27,-5.69 0,-2.22 -0.75,-4.12 -2.26,-5.69 -1.5,-1.57 -3.33,-2.36 -5.46,-2.36 -2.16,-0.01 -3.99,0.77 -5.48,2.33 z"
   class="st1" />
		</g>
		<g
   id="g5168">
			<g
   id="g5166">
				<g
   id="g5158">
					<g
   id="g5156">
						<path
   id="path5154"
   d="m 28.1,52.41 28.73,38.94 -5.67,4.19 C 47.04,98.58 41.24,97.7 38.2,93.58 L 11.13,56.89 19.05,51.04 c 2.88,-2.11 6.93,-1.5 9.05,1.37 z"
   class="st1" />
					</g>
				</g>
				<g
   id="g5164">
					<g
   id="g5162">
						<path
   id="path5160"
   d="m 62.07,52.42 28.73,38.94 -5.67,4.19 c -4.12,3.04 -9.92,2.16 -12.96,-1.96 l -27.08,-36.7 7.92,-5.84 c 2.88,-2.12 6.94,-1.51 9.06,1.37 z"
   class="st1" />
					</g>
				</g>
			</g>
		</g>
	</g>
</g>
</svg>
